<svg xmlns="http://www.w3.org/2000/svg" width="90" height="67" viewBox="0 0 239 180">
  <g id="Group_1417" data-name="Group 1417" transform="translate(-385 -355)">
    <g id="Group_5" data-name="Group 5" transform="translate(339.973 257.228)">
      <g id="Group_4" data-name="Group 4" transform="translate(91.385 97.772)">
        <g id="Group_3" data-name="Group 3">
          <g id="Laag_1" data-name="Laag 1">
            <g id="Group_2" data-name="Group 2">
              <g id="Group_1" data-name="Group 1">
                <path id="Path_1" data-name="Path 1" d="M190.406,151.895l-.357.368a22.284,22.284,0,0,1-7.586,5.023l-.145-.008a22.787,22.787,0,0,1-8.216,1.566,26.6,26.6,0,0,1-11.9-2.578l-.225-.011-.548-.284-.156-.088a20.029,20.029,0,0,1-8.132-8.113l-.355-.614-7.6,8.158s-1.52,7.8-2.194,11.629l-.013.257.183.186h0l.108.117a40.839,40.839,0,0,0,30.16,13.292l.61.03.5.026A44.419,44.419,0,0,0,196,175.288l.2-.1a44.231,44.231,0,0,0,9.836-7.546l.357-.368Z" transform="translate(-60.106 -67.835)" fill="#fff"/>
                <path id="Path_2" data-name="Path 2" d="M105.786,134.432l-.008.145,3.116,11.59.628-1a22.482,22.482,0,0,1,14.205-9.335l.257.013a24.6,24.6,0,0,1,6.166-.479,21.421,21.421,0,0,1,8.876,2.586l.22.124a34.172,34.172,0,0,1,9.827,8.295l.437.569,7.27-10.232h0l2.331-10.82-.247-.19-.834-.716a44.948,44.948,0,0,0-16.559-9.7,37.569,37.569,0,0,0-10.212-1.608l-.161-.008a47.154,47.154,0,0,0-22.32,5.712l-.215.117-3.071,13.741Z" transform="translate(-82.833 -88.132)" fill="#fff"/>
                <path id="Path_3" data-name="Path 3" d="M182.5,173.621l.011-.209c.043-.851-.143-4.189-.19-6.137l.026-.514a22.134,22.134,0,0,1,4.785-14.233l.1-.14c.463-.588.957-1.142,1.484-1.695a22.294,22.294,0,0,1,15.94-6.772,24.511,24.511,0,0,1,2.872.145l.161.008a23.021,23.021,0,0,1,13.092,6.369l.368.371,15.4-15.516-.366-.373a45.352,45.352,0,0,0-28.84-12.708l-.161-.008-2.92-.148a48.65,48.65,0,0,0-18.952,3.662,36.827,36.827,0,0,0-10.775,7l-.169.153-.193-.01,0,.1-.117.106h0l-.169.153a34.742,34.742,0,0,0-3.052,3.432l0,.1-2.475,10.844-8.209,11.327,0,7.914a22.842,22.842,0,0,1-13.01,20.446l-.148.072a22.321,22.321,0,0,1-9.172,1.984,22.906,22.906,0,0,1-23.085-22.246l-.111-7.373.024-.48-4.028-15.82,3.424-14.687-.365-23.081-22.3-7.877.858,51.041-.011.225.291,18.171a17.965,17.965,0,0,0,.084,1.855,2.336,2.336,0,0,0-.016.336,44.358,44.358,0,0,0,16.8,31.725l.154.12a45.52,45.52,0,0,0,28.535,9.848l1.609-.032.337.018c11.374-.41,20.759-4.086,28.019-10.926l.135-.122c1.047-1.009,2.049-2.067,3.007-3.193l.085-.109,2.395-12.745,8.807-10.106Z" transform="translate(-91.385 -97.772)" fill="#fff"/>
              </g>
            </g>
          </g>
        </g>
      </g>
    </g>
    <text id="BitCanna" transform="translate(385 524)" fill="#fff" font-size="50" font-family="CarmenSans-SemiBold, Carmen Sans" font-weight="600" letter-spacing="-0.02em"><tspan x="0" y="0">BitCanna</tspan></text>
  </g>
</svg>
