<?xml version="1.0" encoding="UTF-8"?> <svg xmlns="http://www.w3.org/2000/svg" width="66" height="66" viewBox="0 0 66 66" fill="none"> <circle cx="33" cy="33" r="33" fill="url(#paint0_linear)"></circle> <path d="M26.5481 54.8262C31.2733 52.098 33.353 46.8614 33.6138 41.7559C33.8624 36.89 29.0612 34.0609 24.7764 31.7416C19.361 28.8103 15.6746 23.0789 15.6746 16.5005C15.6746 13.9955 16.2111 11.6139 17.1734 9.46239C17.455 8.83294 16.7472 8.13778 16.1792 8.52878C8.40147 13.8833 3.30005 22.8437 3.30005 33.0005C3.30005 41.7397 6.19991 29.0032 12.874 50.0349C14.1156 53.9475 17.2121 57.3725 21.26 56.6912C23.084 56.3843 24.9143 55.7693 26.5481 54.8262Z" fill="#1F1F1F"></path> <path d="M17.3462 16.4957C17.3463 21.952 20.8414 26.3713 25.1325 29.1499C29.2223 31.7981 34.0729 29.0548 38.2239 26.5037C43.4702 23.2794 50.2769 22.9526 55.974 26.2418C58.1434 27.4943 59.9376 29.1498 61.3197 31.0589C61.7241 31.6174 62.68 31.3521 62.6254 30.6647C61.8771 21.2517 56.6679 12.3536 47.8718 7.27515C40.3034 2.90555 49.8836 11.7852 28.3326 7.04925C24.3234 6.16822 19.809 7.13738 18.3751 10.9836C17.7289 12.7167 17.3464 14.6093 17.3462 16.4957Z" fill="#1F1F1F"></path> <path d="M55.1384 27.6958C50.413 24.9677 44.8382 25.7849 40.2863 28.1118C35.948 30.3295 35.8985 35.902 36.0323 40.7724C36.2015 46.928 33.0812 52.9861 27.3841 56.2753C25.2147 57.5278 22.8839 58.254 20.5395 58.4964C19.8536 58.5673 19.6054 59.5278 20.228 59.8242C28.7541 63.8826 39.0647 63.8204 47.8608 58.742C55.4291 54.3724 42.9491 58.2293 57.826 41.9335C60.5936 38.902 62.0115 34.5078 59.3975 31.3428C58.2197 29.9168 56.7719 28.6391 55.1384 27.6958Z" fill="#1F1F1F"></path> <defs> <linearGradient id="paint0_linear" x1="12.276" y1="2.77213" x2="54.516" y2="62.9641" gradientUnits="userSpaceOnUse"> <stop stop-color="#FCECB2"></stop> <stop offset="0.260417" stop-color="#FF8B89"></stop> <stop offset="0.520833" stop-color="#FC8ADC"></stop> <stop offset="0.755208" stop-color="#7954FF"></stop> <stop offset="1" stop-color="#70BCFF"></stop> </linearGradient> </defs> </svg> 